<mxfile host="app.diagrams.net" modified="2024-01-14T07:01:12.735Z" agent="Mozilla/5.0 (Windows NT 10.0; Win64; x64) AppleWebKit/537.36 (KHTML, like Gecko) Chrome/120.0.0.0 Safari/537.36" version="22.1.18" etag="ysg6sDukHATrIZXfyvTl" type="github">
  <diagram name="หน้า-1" id="7LSPGE3ZmAmm1AfZXDJ2">
    <mxGraphModel>
      <root>
        <mxCell id="0" />
        <mxCell id="1" parent="0" />
      </root>
    </mxGraphModel>
  </diagram>
</mxfile>
